<svg xmlns="http://www.w3.org/2000/svg" version="1.1" xmlns:xlink="http://www.w3.org/1999/xlink" xmlns:svgjs="http://svgjs.com/svgjs" width="1440" height="560" preserveAspectRatio="none" viewBox="0 0 1440 560"><g mask="url(&quot;#SvgjsMask1022&quot;)" fill="none"><rect width="1440" height="560" x="0" y="0" fill="#0e2a47"></rect><g transform="translate(0, 0)" stroke-linecap="round"><path d="M260 257.32 L260 302.68" stroke-width="15" stroke="#dd1133"></path><path d="M280 256.03 L280 303.97" stroke-width="15" stroke="#3a7cc3"></path><path d="M300 156.13 L300 403.88" stroke-width="15" stroke="#dd1133"></path><path d="M320 231.67 L320 328.33" stroke-width="15" stroke="#3a7cc3"></path><path d="M340 192.03 L340 367.97" stroke-width="15" stroke="#dd1133"></path><path d="M360 219.67 L360 340.33" stroke-width="15" stroke="#dd1133"></path><path d="M380 250.34 L380 309.65" stroke-width="15" stroke="#3a7cc3"></path><path d="M400 227.66 L400 332.34" stroke-width="15" stroke="#3a7cc3"></path><path d="M420 170.39 L420 389.61" stroke-width="15" stroke="#3a7cc3"></path><path d="M440 251.63 L440 308.38" stroke-width="15" stroke="#dd1133"></path><path d="M460 239.91 L460 320.09" stroke-width="15" stroke="#dd1133"></path><path d="M480 161.14 L480 398.86" stroke-width="15" stroke="#3a7cc3"></path><path d="M500 214.01 L500 345.99" stroke-width="15" stroke="#3a7cc3"></path><path d="M520 206.34 L520 353.65" stroke-width="15" stroke="#3a7cc3"></path><path d="M540 180.68 L540 379.32" stroke-width="15" stroke="#3a7cc3"></path><path d="M560 200.93 L560 359.07" stroke-width="15" stroke="#dd1133"></path><path d="M580 138.15 L580 421.86" stroke-width="15" stroke="#dd1133"></path><path d="M600 123.48 L600 436.52" stroke-width="15" stroke="#3a7cc3"></path><path d="M620 250.26 L620 309.74" stroke-width="15" stroke="#3a7cc3"></path><path d="M640 135.53 L640 424.47" stroke-width="15" stroke="#dd1133"></path><path d="M660 144.44 L660 415.56" stroke-width="15" stroke="#dd1133"></path><path d="M680 152.78 L680 407.23" stroke-width="15" stroke="#dd1133"></path><path d="M700 203.28 L700 356.72" stroke-width="15" stroke="#dd1133"></path><path d="M720 239.18 L720 320.82" stroke-width="15" stroke="#3a7cc3"></path><path d="M740 144.01 L740 415.99" stroke-width="15" stroke="#dd1133"></path><path d="M760 208.22 L760 351.78" stroke-width="15" stroke="#3a7cc3"></path><path d="M780 182.82 L780 377.18" stroke-width="15" stroke="#3a7cc3"></path><path d="M800 180.75 L800 379.25" stroke-width="15" stroke="#dd1133"></path><path d="M820 184.86 L820 375.14" stroke-width="15" stroke="#3a7cc3"></path><path d="M840 194.45 L840 365.55" stroke-width="15" stroke="#3a7cc3"></path><path d="M860 238.67 L860 321.33" stroke-width="15" stroke="#dd1133"></path><path d="M880 204.78 L880 355.22" stroke-width="15" stroke="#dd1133"></path><path d="M900 127.56 L900 432.44" stroke-width="15" stroke="#3a7cc3"></path><path d="M920 225.54 L920 334.46" stroke-width="15" stroke="#3a7cc3"></path><path d="M940 221.58 L940 338.42" stroke-width="15" stroke="#dd1133"></path><path d="M960 237.98 L960 322.02" stroke-width="15" stroke="#3a7cc3"></path><path d="M980 214.93 L980 345.07" stroke-width="15" stroke="#3a7cc3"></path><path d="M1000 218.6 L1000 341.4" stroke-width="15" stroke="#3a7cc3"></path><path d="M1020 202.01 L1020 357.99" stroke-width="15" stroke="#dd1133"></path><path d="M1040 120.63 L1040 439.37" stroke-width="15" stroke="#3a7cc3"></path><path d="M1060 179 L1060 381" stroke-width="15" stroke="#dd1133"></path><path d="M1080 125.57 L1080 434.43" stroke-width="15" stroke="#3a7cc3"></path><path d="M1100 234.69 L1100 325.31" stroke-width="15" stroke="#dd1133"></path><path d="M1120 251.19 L1120 308.81" stroke-width="15" stroke="#3a7cc3"></path><path d="M1140 184.71 L1140 375.29" stroke-width="15" stroke="#dd1133"></path><path d="M1160 225.25 L1160 334.75" stroke-width="15" stroke="#dd1133"></path><path d="M1180 202.98 L1180 357.02" stroke-width="15" stroke="#3a7cc3"></path></g></g><defs><mask id="SvgjsMask1022"><rect width="1440" height="560" fill="#ffffff"></rect></mask></defs></svg>